<svg height="1806" width="720" xmlns="http://www.w3.org/2000/svg">
<rect height="1806" fill="#555" width="720"></rect>
<text fill="#7f7" font-family="Courier New" font-size="12" xml:space="preserve">
<tspan x="10" y="26">5 megabytes installed</tspan>
<tspan x="10" y="42"></tspan>
<tspan x="10" y="58">node_modules</tspan>
<tspan x="10" y="74">└─┬ gulp-livereload@3.8.1 </tspan>
<tspan x="10" y="90">  ├─┬ chalk@0.5.1 </tspan>
<tspan x="10" y="106">  │ ├── ansi-styles@1.1.0 </tspan>
<tspan x="10" y="122">  │ ├── escape-string-regexp@1.0.5 </tspan>
<tspan x="10" y="138">  │ ├─┬ has-ansi@0.1.0 </tspan>
<tspan x="10" y="154">  │ │ └── ansi-regex@0.2.1 </tspan>
<tspan x="10" y="170">  │ ├── strip-ansi@0.3.0 </tspan>
<tspan x="10" y="186">  │ └── supports-color@0.2.0 </tspan>
<tspan x="10" y="202">  ├─┬ debug@2.6.3 </tspan>
<tspan x="10" y="218">  │ └── ms@0.7.2 </tspan>
<tspan x="10" y="234">  ├─┬ event-stream@3.3.4 </tspan>
<tspan x="10" y="250">  │ ├── duplexer@0.1.1 </tspan>
<tspan x="10" y="266">  │ ├── from@0.1.7 </tspan>
<tspan x="10" y="282">  │ ├── map-stream@0.1.0 </tspan>
<tspan x="10" y="298">  │ ├── pause-stream@0.0.11 </tspan>
<tspan x="10" y="314">  │ ├── split@0.3.3 </tspan>
<tspan x="10" y="330">  │ ├── stream-combiner@0.0.4 </tspan>
<tspan x="10" y="346">  │ └── through@2.3.8 </tspan>
<tspan x="10" y="362">  ├─┬ gulp-util@3.0.8 </tspan>
<tspan x="10" y="378">  │ ├── array-differ@1.0.0 </tspan>
<tspan x="10" y="394">  │ ├── array-uniq@1.0.3 </tspan>
<tspan x="10" y="410">  │ ├── beeper@1.1.1 </tspan>
<tspan x="10" y="426">  │ ├─┬ chalk@1.1.3 </tspan>
<tspan x="10" y="442">  │ │ ├── ansi-styles@2.2.1 </tspan>
<tspan x="10" y="458">  │ │ ├─┬ has-ansi@2.0.0 </tspan>
<tspan x="10" y="474">  │ │ │ └── ansi-regex@2.1.1 </tspan>
<tspan x="10" y="490">  │ │ ├── strip-ansi@3.0.1 </tspan>
<tspan x="10" y="506">  │ │ └── supports-color@2.0.0 </tspan>
<tspan x="10" y="522">  │ ├── dateformat@2.0.0 </tspan>
<tspan x="10" y="538">  │ ├─┬ fancy-log@1.3.0 </tspan>
<tspan x="10" y="554">  │ │ ├─┬ chalk@1.1.3 </tspan>
<tspan x="10" y="570">  │ │ │ ├── ansi-styles@2.2.1 </tspan>
<tspan x="10" y="586">  │ │ │ ├─┬ has-ansi@2.0.0 </tspan>
<tspan x="10" y="602">  │ │ │ │ └── ansi-regex@2.1.1 </tspan>
<tspan x="10" y="618">  │ │ │ ├── strip-ansi@3.0.1 </tspan>
<tspan x="10" y="634">  │ │ │ └── supports-color@2.0.0 </tspan>
<tspan x="10" y="650">  │ │ └── time-stamp@1.0.1 </tspan>
<tspan x="10" y="666">  │ ├─┬ gulplog@1.0.0 </tspan>
<tspan x="10" y="682">  │ │ └── glogg@1.0.0 </tspan>
<tspan x="10" y="698">  │ ├─┬ has-gulplog@0.1.0 </tspan>
<tspan x="10" y="714">  │ │ └── sparkles@1.0.0 </tspan>
<tspan x="10" y="730">  │ ├── lodash._reescape@3.0.0 </tspan>
<tspan x="10" y="746">  │ ├── lodash._reevaluate@3.0.0 </tspan>
<tspan x="10" y="762">  │ ├── lodash._reinterpolate@3.0.0 </tspan>
<tspan x="10" y="778">  │ ├─┬ lodash.template@3.6.2 </tspan>
<tspan x="10" y="794">  │ │ ├── lodash._basecopy@3.0.1 </tspan>
<tspan x="10" y="810">  │ │ ├── lodash._basetostring@3.0.1 </tspan>
<tspan x="10" y="826">  │ │ ├── lodash._basevalues@3.0.0 </tspan>
<tspan x="10" y="842">  │ │ ├── lodash._isiterateecall@3.0.9 </tspan>
<tspan x="10" y="858">  │ │ ├─┬ lodash.escape@3.2.0 </tspan>
<tspan x="10" y="874">  │ │ │ └── lodash._root@3.0.1 </tspan>
<tspan x="10" y="890">  │ │ ├── lodash.restparam@3.6.1 </tspan>
<tspan x="10" y="906">  │ │ └── lodash.templatesettings@3.1.1 </tspan>
<tspan x="10" y="922">  │ ├── minimist@1.2.0 </tspan>
<tspan x="10" y="938">  │ ├─┬ multipipe@0.1.2 </tspan>
<tspan x="10" y="954">  │ │ └─┬ duplexer2@0.0.2 </tspan>
<tspan x="10" y="970">  │ │   └─┬ readable-stream@1.1.14 </tspan>
<tspan x="10" y="986">  │ │     ├── isarray@0.0.1 </tspan>
<tspan x="10" y="1002">  │ │     └── string_decoder@0.10.31 </tspan>
<tspan x="10" y="1018">  │ ├── object-assign@3.0.0 </tspan>
<tspan x="10" y="1034">  │ ├── replace-ext@0.0.1 </tspan>
<tspan x="10" y="1050">  │ ├─┬ through2@2.0.3 </tspan>
<tspan x="10" y="1066">  │ │ ├─┬ readable-stream@2.2.9 </tspan>
<tspan x="10" y="1082">  │ │ │ ├── buffer-shims@1.0.0 </tspan>
<tspan x="10" y="1098">  │ │ │ ├── core-util-is@1.0.2 </tspan>
<tspan x="10" y="1114">  │ │ │ ├── inherits@2.0.3 </tspan>
<tspan x="10" y="1130">  │ │ │ ├── isarray@1.0.0 </tspan>
<tspan x="10" y="1146">  │ │ │ ├── process-nextick-args@1.0.7 </tspan>
<tspan x="10" y="1162">  │ │ │ ├── string_decoder@1.0.0 </tspan>
<tspan x="10" y="1178">  │ │ │ └── util-deprecate@1.0.2 </tspan>
<tspan x="10" y="1194">  │ │ └── xtend@4.0.1 </tspan>
<tspan x="10" y="1210">  │ └─┬ vinyl@0.5.3 </tspan>
<tspan x="10" y="1226">  │   ├── clone@1.0.2 </tspan>
<tspan x="10" y="1242">  │   └── clone-stats@0.0.1 </tspan>
<tspan x="10" y="1258">  ├─┬ lodash.assign@3.2.0 </tspan>
<tspan x="10" y="1274">  │ ├── lodash._baseassign@3.2.0 </tspan>
<tspan x="10" y="1290">  │ ├─┬ lodash._createassigner@3.1.1 </tspan>
<tspan x="10" y="1306">  │ │ └── lodash._bindcallback@3.0.1 </tspan>
<tspan x="10" y="1322">  │ └─┬ lodash.keys@3.1.2 </tspan>
<tspan x="10" y="1338">  │   ├── lodash._getnative@3.9.1 </tspan>
<tspan x="10" y="1354">  │   ├── lodash.isarguments@3.1.0 </tspan>
<tspan x="10" y="1370">  │   └── lodash.isarray@3.0.4 </tspan>
<tspan x="10" y="1386">  └─┬ mini-lr@0.1.9 </tspan>
<tspan x="10" y="1402">    ├─┬ body-parser@1.14.2 </tspan>
<tspan x="10" y="1418">    │ ├── bytes@2.2.0 </tspan>
<tspan x="10" y="1434">    │ ├── content-type@1.0.2 </tspan>
<tspan x="10" y="1450">    │ ├─┬ debug@2.2.0 </tspan>
<tspan x="10" y="1466">    │ │ └── ms@0.7.1 </tspan>
<tspan x="10" y="1482">    │ ├── depd@1.1.0 </tspan>
<tspan x="10" y="1498">    │ ├─┬ http-errors@1.3.1 </tspan>
<tspan x="10" y="1514">    │ │ └── statuses@1.3.1 </tspan>
<tspan x="10" y="1530">    │ ├── iconv-lite@0.4.13 </tspan>
<tspan x="10" y="1546">    │ ├─┬ on-finished@2.3.0 </tspan>
<tspan x="10" y="1562">    │ │ └── ee-first@1.1.1 </tspan>
<tspan x="10" y="1578">    │ ├── qs@5.2.0 </tspan>
<tspan x="10" y="1594">    │ ├─┬ raw-body@2.1.7 </tspan>
<tspan x="10" y="1610">    │ │ ├── bytes@2.4.0 </tspan>
<tspan x="10" y="1626">    │ │ └── unpipe@1.0.0 </tspan>
<tspan x="10" y="1642">    │ └─┬ type-is@1.6.15 </tspan>
<tspan x="10" y="1658">    │   ├── media-typer@0.3.0 </tspan>
<tspan x="10" y="1674">    │   └─┬ mime-types@2.1.15 </tspan>
<tspan x="10" y="1690">    │     └── mime-db@1.27.0 </tspan>
<tspan x="10" y="1706">    ├─┬ faye-websocket@0.7.3 </tspan>
<tspan x="10" y="1722">    │ └─┬ websocket-driver@0.6.5 </tspan>
<tspan x="10" y="1738">    │   └── websocket-extensions@0.1.1 </tspan>
<tspan x="10" y="1754">    ├── livereload-js@2.2.2 </tspan>
<tspan x="10" y="1770">    ├── parseurl@1.3.1 </tspan>
<tspan x="10" y="1786">    └── qs@2.2.5</tspan>
</text>
</svg>
